<?xml version="1.0" encoding="utf-8"?>
<!-- Generator: Adobe Illustrator 22.0.1, SVG Export Plug-In . SVG Version: 6.00 Build 0)  -->
<svg version="1.1" id="レイヤー_1" xmlns="http://www.w3.org/2000/svg" xmlns:xlink="http://www.w3.org/1999/xlink" x="0px"
	 y="0px" viewBox="0 0 3000 300" style="enable-background:new 0 0 3000 300;" xml:space="preserve">
<style type="text/css">
	.st0{fill:#CC0033;stroke:#CC0033;stroke-width:7;stroke-miterlimit:10;}
	.st1{font-family:'KozGoPr6N-Regular-90ms-RKSJ-H';}
	.st2{font-size:217.6668px;}
	.st3{fill:#D3D3D3;}
	.st4{font-family:'Meiryo-Bold';}
	.st5{font-size:57.4401px;}
	.st6{fill:#C9C9C9;}
	.st7{fill:#CC0033;}
	.st8{fill:#727272;}
	.st9{font-family:'HGSSoeiKakugothicUB';}
	.st10{font-size:44.432px;}
	.st11{letter-spacing:-22;}
	.st12{fill:#591010;}
	.st13{fill:none;stroke:#727272;stroke-miterlimit:10;}
</style>
<text transform="matrix(1 0 0 1 260.0015 272.21)" class="st0 st1 st2">Mocomoco</text>
<text transform="matrix(1 0 0 1 2153 258.7432)" class="st3 st4 st5">YAKINIKUDAISUKI.com</text>
<g>
	<g>
		<path class="st6" d="M2973.7,216.1c-0.3-1.1-0.9-2-1.6-2.8c-1.1-1.1-2.5-1.7-3.9-2c-1.4-0.4-2.8-0.5-4.2-0.5
			c-1.1,0-2.2,0.1-3.1,0.2h0c-0.7,0.1-1.3,0.2-1.9,0.3c-0.5,0.1-1,0.2-1.3,0.2l-0.1,0c0,0,0,0,0-0.1c-0.4-2.8-0.6-5.5-1.3-8.2
			c-0.7-2.8-2.1-5.6-4.6-8.3c-1.2-1.3-2.7-2-4.1-2c-1.3,0-2.4,0.5-3.2,1.3c-0.8,0.8-1.3,1.9-1.3,3c0,0.5,0.1,1.1,0.4,1.6l0,0
			c0.7,2,1.2,3.8,1.2,5.3c0,0.9-0.1,1.6-0.4,2.2c-0.4,0.9-1.1,1.6-2.4,2.3c-1.3,0.6-3.2,1-5.9,1c-3.6,0-5.8-0.7-7-1.6
			c-0.6-0.5-1-1-1.3-1.6c-0.3-0.6-0.4-1.4-0.4-2.2c0-1.5,0.4-3.3,1.2-5.3l0,0c0.2-0.5,0.4-1.1,0.4-1.6c0-1.2-0.5-2.3-1.3-3
			c-0.8-0.8-1.9-1.3-3.2-1.3c-1.4,0-2.9,0.7-4.1,2c-2.5,2.7-3.9,5.5-4.6,8.3c-0.7,2.8-1,5.5-1.3,8.2c0,0,0,0,0,0.1l-0.1,0
			c-0.3,0-0.7-0.1-1.3-0.2c-0.6-0.1-1.2-0.2-1.9-0.3h0c-0.9-0.1-1.9-0.2-3.1-0.2c-1.8,0-3.7,0.2-5.5,0.9c-0.9,0.4-1.8,0.9-2.5,1.6
			c-0.7,0.7-1.3,1.7-1.6,2.8c-0.2,0.6-0.3,1.2-0.3,1.9c0,2.7,1.5,5.6,4.1,8c2.5,2.3,6.1,4.1,10.8,4.9c0,0.1,0,0.1,0.1,0.2
			c0.3,1.3,0.6,3.7,1.2,6.6c0.9,4.3,2.5,9.7,5.8,14.1c1.7,2.2,3.8,4.2,6.4,5.5c2.7,1.4,5.8,2.2,9.6,2.2c5.6,0,10-1.9,13.2-4.7
			c4.8-4.3,7-10.4,8.3-15.5c0.6-2.6,1-4.9,1.3-6.6c0.1-0.8,0.3-1.4,0.4-1.9c4.7-0.8,8.3-2.7,10.8-4.9c2.6-2.4,4.1-5.3,4.1-8
			C2974,217.3,2973.9,216.7,2973.7,216.1z M2922.6,197c0.8-0.8,1.3-1,1.8-1c0.4,0,0.7,0.1,0.9,0.4c0.2,0.2,0.4,0.5,0.4,0.8l-0.1,0.4
			l0,0.1l0,0.1c-0.8,2.2-1.3,4.4-1.4,6.4c0,1.2,0.2,2.4,0.7,3.5c0.4,0.9,1,1.7,1.7,2.4c-1.2,0-2.5,0-3.7-0.1c-2,0-3.9,0-5.1,0
			c0.3-2.1,0.5-4.1,1-5.9C2919.4,201.6,2920.4,199.4,2922.6,197z M2945.3,253.8c-2.4,1.6-5.4,2.6-9.3,2.6c-5,0-8.4-1.6-11.1-3.9
			c-1.9-1.7-3.4-3.8-4.5-6.1c0.1-0.7,0.4-1.4,1-2c1-1.3,2.9-2.4,5.5-3.2c2.5-0.8,5.6-1.2,9-1.2c4.5,0,8.5,0.8,11.3,2.1
			c1.4,0.7,2.5,1.5,3.2,2.3c0.7,0.8,1,1.7,1,2.7c-0.1,0.2-0.2,0.4-0.3,0.5C2949.6,250,2947.8,252.2,2945.3,253.8z M2967.8,223.6
			c-2.1,1.9-5.4,3.6-10,4.3l-0.4,0.1l-0.3,0.2c-0.4,0.3-0.5,0.5-0.7,0.7c-0.2,0.4-0.3,0.7-0.4,1.1c-0.2,0.7-0.3,1.6-0.5,2.7
			c-0.5,2.8-1.2,7-2.7,10.9c-0.2-0.3-0.4-0.6-0.6-0.9c-1.5-1.8-3.9-3.1-6.7-4c-2.8-0.9-6.2-1.3-9.7-1.3c-4.8,0-9.1,0.8-12.4,2.3
			c-1.6,0.8-3,1.8-4,3c-0.1,0.1-0.2,0.3-0.3,0.5c-0.6-1.6-1.1-3.2-1.4-4.7c-0.2-1-0.4-1.9-0.6-2.7c1,0.3,2.1,0.4,3.2,0.4
			c3.1,0,6.3-1.1,9.1-2.9c2.8-1.8,5.1-4.3,6.6-7.3c0.9-1.8,1.2-3.7,1.2-5.4c0-2.8-0.9-5.3-2.1-7.2c-0.2-0.3-0.4-0.5-0.6-0.8
			c0.5,0,1.1,0.1,1.6,0.1c4,0,6.9-0.7,9-2.3c1-0.8,1.8-1.8,2.2-2.9c0.5-1.1,0.7-2.3,0.7-3.5c0-2-0.5-4.2-1.4-6.4l0-0.1l0-0.1
			l-0.1-0.4c0-0.2,0.1-0.6,0.4-0.8c0.2-0.2,0.6-0.4,0.9-0.4c0.4,0,1,0.2,1.8,1c2.2,2.4,3.2,4.6,3.9,7c0.7,2.4,0.9,5,1.3,7.8
			c0.1,0.4,0.2,0.8,0.4,1.2c0.3,0.6,0.8,1.1,1.3,1.3c0.5,0.3,1.1,0.3,1.5,0.3c0.7,0,1.3-0.1,1.9-0.2c0.6-0.1,1.2-0.2,1.7-0.3l0,0
			c0.8-0.1,1.7-0.2,2.7-0.2c1.5,0,3.2,0.2,4.4,0.7c0.6,0.2,1.1,0.6,1.5,0.9c0.4,0.4,0.6,0.8,0.8,1.4c0.1,0.3,0.1,0.6,0.1,1
			C2970.8,219.5,2969.9,221.6,2967.8,223.6z"/>
		<path class="st6" d="M2928.8,246.1c-1,0-1.8,1.3-1.8,2.9c0,1.6,0.8,2.9,1.8,2.9c1,0,1.8-1.3,1.8-2.9
			C2930.6,247.4,2929.8,246.1,2928.8,246.1z"/>
		<path class="st6" d="M2940.7,246.1c-1,0-1.8,1.3-1.8,2.9c0,1.6,0.8,2.9,1.8,2.9c1,0,1.8-1.3,1.8-2.9
			C2942.5,247.4,2941.7,246.1,2940.7,246.1z"/>
		<path class="st6" d="M2945,222.3c-1.4,0-2.5,1.1-2.5,2.5c0,1.4,1.1,2.5,2.5,2.5c1.4,0,2.5-1.1,2.5-2.5
			C2947.5,223.5,2946.4,222.3,2945,222.3z"/>
	</g>
</g>
<g>
	<path class="st7" d="M128,99.4H65.3C53.6,99.4,44,109,44,120.8v128.1c0,18.8,15.3,34.1,34.1,34.1h37.1c18.8,0,34.1-15.3,34.1-34.1
		V120.8C149.3,109,139.8,99.4,128,99.4z M96.7,272c-2.9,0-5.3-2.4-5.3-5.3c0-2.9,2.4-5.3,5.3-5.3c2.9,0,5.3,2.4,5.3,5.3
		C101.9,269.6,99.6,272,96.7,272z M83.1,107.5h27.1c1.5,0,2.8,1.2,2.8,2.8c0,1.5-1.2,2.8-2.8,2.8H83.1c-1.5,0-2.8-1.2-2.8-2.8
		C80.4,108.7,81.6,107.5,83.1,107.5z M56.1,248.9V125h81.2v123.9c0,1.4-0.1,2.7-0.4,4H56.4C56.2,251.6,56.1,250.3,56.1,248.9z"/>
	<path class="st7" d="M148.6,71.9l-3.8,8.9c10.8,4.5,19.3,13.4,23.6,24.3l9-3.5C172.2,88.2,161.8,77.5,148.6,71.9z"/>
	<path class="st7" d="M151.2,44.3l-2.8,9.2c22.8,6.9,40.7,25.2,47.2,48.1l9.2-2.6C197.4,72.8,177.1,52.2,151.2,44.3z"/>
	<path class="st7" d="M154,17.1l-2.3,9.3c35.1,8.8,62.6,36.7,71,71.9l9.4-2.2C222.8,57.4,192.6,26.8,154,17.1z"/>
</g>
<g>
	<text transform="matrix(1 0 0 1 1670.3672 135.7749)"><tspan x="0" y="0" class="st8 st9 st10">このサイトは、練習用のデモサイトです。実在しません</tspan><tspan x="1110.8" y="0" class="st8 st9 st10 st11">。</tspan></text>
</g>
<g>
	<path class="st12" d="M286.8,62.3c-0.1,1.4-0.2,2.8-0.2,4.4c0,4.7,2.2,7,6.7,7c2.5,0,4.6-0.9,6.2-2.6c1.4-1.5,2.1-3.5,2.1-5.8
		c0-4.4-2.1-8.7-6.4-13c-0.3-0.3-0.4-0.5-0.4-0.8c0-0.4,0.2-0.6,0.7-0.6c0.1,0,0.4,0.1,0.8,0.4c2.6,1.8,4.8,4.1,6.4,6.9
		c1.5,2.5,2.2,5,2.2,7.5c0,3.2-1.3,5.8-3.9,7.8c-2.1,1.5-4.6,2.3-7.4,2.3c-2.8,0-5-0.8-6.6-2.5c-1.6-1.7-2.4-4-2.4-7.1
		c0-1.5,0.1-3,0.2-4.3c-2.6-0.9-4.5-1.8-5.5-2.9c-1.1-1.1-1.7-2.6-1.7-4.5c0-2.4,1.5-4.9,4.6-7.4c-1.8-0.7-3.1-1.7-4.1-2.9
		c-0.9-1.1-1.4-2.1-1.4-2.9c0-0.4,0.1-0.6,0.4-0.6c0.2,0,0.5,0.2,0.9,0.7c0.7,1,1.8,1.9,3.3,2.7c1.2,0.6,2.4,1,3.6,1.1
		c1.4,0.1,2.3,0.6,2.6,1.4c0.5-2.8,1-5.1,1.2-6.8c0-0.2,0.1-0.6,0.1-1c0.1-0.8,0.2-1.3,0.2-1.5c0-1.1-0.2-1.8-0.5-2.3
		c-0.3-0.5-1-0.8-1.8-1c-0.6-0.1-0.9-0.3-0.9-0.5c0-0.3,0.2-0.5,0.7-0.7c0.4-0.2,0.9-0.3,1.3-0.3c1.2,0,2.5,0.6,3.8,1.8
		c1.1,1,1.7,1.9,1.7,2.8c0,0.6-0.2,1-0.7,1.3c-0.4,0.3-0.7,0.9-1,2c-1.6,6.4-2.9,12.7-3.9,19c1,0.1,1.9,0.2,2.8,0.2
		c0.4,0,0.8,0,1.1-0.1c1.7-0.1,2.5,0.4,2.5,1.3c0,0.8-0.4,1.3-1.2,1.4c-0.5,0.1-1.3,0.2-2.4,0.2C289.2,62.6,288,62.5,286.8,62.3z
		 M285.3,59.2c0.7-4.4,1.3-8.2,1.9-11.4c-0.3,0.3-0.8,0.5-1.7,0.5c-1.1,0.1-2.1,0.4-3,1.1c-2.3,1.6-3.4,3.3-3.4,5
		C279.1,56.8,281.1,58.4,285.3,59.2z"/>
	<path class="st12" d="M349.4,49.9c3.2,0,5.9,0.9,7.9,2.8c2,1.9,3,4.1,3,6.8c0,3.9-2.2,7.1-6.6,9.6c-3.5,2-7.8,3.1-12.8,3.5
		c-0.3,0-0.8,0.1-1.4,0.1c-0.6,0-1-0.2-1-0.7c0-0.4,0.3-0.6,0.8-0.7c5-0.7,9.1-2,12.3-3.9c3.6-2.3,5.4-5,5.4-8.1
		c0-2.3-0.6-4-1.9-5.3c-1.4-1.4-3.3-2.2-5.6-2.2c-2.5,0-5,0.6-7.6,1.9c-1.7,0.9-4,2.3-7,4.4c-0.8,0.6-1.3,1.1-1.7,1.5
		c-0.4,0.5-0.9,0.8-1.5,0.8c-0.9,0-2-0.7-3.1-2.1c-0.8-1.1-1.2-2-1.2-2.7c0-0.7,0.2-1,0.5-1c0.2,0,0.4,0.2,0.7,0.7
		c0.6,0.9,1.2,1.4,1.8,1.5c0.1,0,0.2,0,0.3,0c0.5,0,1.1-0.2,1.9-0.5c5.1-2.5,7.9-3.9,8.3-4.1C344,50.6,346.9,49.9,349.4,49.9z"/>
	<path class="st12" d="M393.8,53.5c-1.3-0.7-2.1-2.2-2.3-4.6c-0.2-2.6-0.4-6.3-0.6-11c-0.1-1-0.3-1.7-0.7-2
		c-0.7-0.6-1.5-0.9-2.4-0.9c-0.2,0-0.3-0.1-0.3-0.4c0-0.3,0.3-0.6,0.8-0.9c0.5-0.2,0.9-0.3,1.4-0.3c1.3,0,2.6,0.6,4.1,1.8
		c0.7,0.6,1.1,1.2,1.1,1.7c0,0.3-0.2,0.7-0.6,1.2c-0.2,0.4-0.4,0.8-0.4,1.2c0,1.3-0.1,2.5-0.1,3.7c0,2.3,0.1,4.6,0.3,7
		c0.1,1.3,0.6,2,1.3,2.1c0.1,0,0.1,0,0.2,0c0.3,0,0.8-0.1,1.3-0.3c2.4-1.1,4.6-2.3,6.7-3.5c0.7-0.4,1.1-0.8,1.1-1.1
		c0-0.5-0.5-1.1-1.6-1.9c-0.3-0.2-0.4-0.4-0.4-0.6c0-0.3,0.3-0.5,1-0.5c1.3,0,2.6,0.7,4.1,2.1c0.9,1,1.4,1.8,1.4,2.4
		c0,0.6-0.6,1.1-1.7,1.5c-5.3,1.9-8.9,3.4-10.9,4.3c-4,2-6.7,3.6-8.2,4.9c-1.9,1.7-2.8,3.5-2.8,5.5c0,3.7,3.3,5.6,9.9,5.6
		c4.3,0,7.6-0.4,10-1.1c0.7-0.2,1.3-0.3,1.8-0.3c0.9,0,1.7,0.2,2.4,0.7c0.6,0.4,1,0.9,1,1.5s-0.2,1-0.7,1.2
		c-0.4,0.2-1.2,0.4-2.2,0.5c-2.4,0.4-5.5,0.5-9.4,0.5c-4.9,0-8.5-0.6-10.8-1.8c-2.7-1.3-4-3.5-4-6.5C383.4,61,386.9,57,393.8,53.5z"
		/>
	<path class="st12" d="M447.5,51.8V41.6h-12.3c-1.4,0-2.7,0.1-3.9,0.3l-0.5-2c1.6,0.2,3.1,0.4,4.4,0.4h12.3v-2.1
		c0-4-0.1-6.6-0.3-8.1c2.5,0.3,4,0.5,4.7,0.7c0.5,0.2,0.7,0.4,0.7,0.7c0,0.4-0.6,0.9-1.9,1.5v7.3h11.4c1.4-1.8,2.3-2.6,2.7-2.6
		c0.3,0,1.3,0.7,2.9,2c0.9,0.7,1.3,1.2,1.3,1.5c0,0.3-0.2,0.5-0.7,0.5h-17.5v10.2h15.1c1.5-1.8,2.4-2.8,2.7-2.8c0.3,0,1.3,0.7,3,2.1
		c0.9,0.8,1.4,1.3,1.4,1.5c0,0.3-0.2,0.5-0.7,0.5h-20.8c2.3,4,5.6,7.6,9.9,10.9c3.6,2.9,7.9,5,12.8,6.4c0.1,0,0.2,0.1,0.2,0.2
		c0,0.2-0.1,0.3-0.2,0.3c-0.7,0.2-1.2,0.4-1.5,0.7c-0.3,0.3-0.6,0.8-1,1.5c-0.2,0.5-0.4,0.7-0.6,0.7c-0.3,0-1-0.2-1.9-0.7
		c-3.4-1.7-6.7-4.3-10.1-7.6c-3.4-3.4-6.2-7.3-8.3-11.5c0.2,12.1,0.4,19.6,0.4,22.4c0,1-0.7,1.6-2.2,1.6c-1,0-1.5-0.5-1.5-1.4
		c0-1.7,0.2-8.5,0.5-20.5c-5,7.6-12.2,13.5-21.9,17.9c0,0,0,0-0.1,0c-0.3,0-0.4-0.2-0.4-0.5c0-0.1,0-0.2,0.1-0.2
		c8.6-5.2,15.4-11.9,20.3-20.3h-14.4c-1.1,0-2.4,0.1-3.9,0.3l-0.5-1.9c1.4,0.2,2.9,0.3,4.5,0.3H447.5z"/>
	<path class="st12" d="M500.4,54.6V40h-14.2c-1.1,0-2.3,0.1-3.7,0.3l-0.5-2c1.3,0.2,2.7,0.4,4.2,0.4h14.3v-1.8
		c0-3.4-0.1-5.8-0.3-7.1c2.4,0.3,3.9,0.5,4.5,0.7c0.5,0.2,0.8,0.4,0.8,0.7c0,0.4-0.6,0.9-1.8,1.5v6h12.6c1.7-1.9,2.6-2.8,2.9-2.8
		c0.3,0,1.3,0.7,3,2.2c0.9,0.7,1.3,1.2,1.3,1.5c0,0.3-0.2,0.5-0.7,0.5h-19v14.5h3.2c1.9-2.9,3.6-5.9,5.1-9c0.8-1.8,1.2-3,1.4-3.7
		c3,1.4,4.5,2.3,4.5,2.8c0,0.6-0.7,0.9-2.1,0.9c-2.5,3.7-5,6.8-7.5,9h10.8c1.6-1.9,2.5-2.9,2.7-2.9c0.3,0,1.3,0.7,3.1,2.1
		c0.8,0.7,1.3,1.2,1.3,1.5c0,0.3-0.2,0.5-0.7,0.5h-21.4c2.7,4.1,6.1,7.6,10.2,10.4c3.5,2.4,7.7,4.3,12.6,5.6c0.1,0,0.2,0.1,0.2,0.2
		c0,0.2-0.1,0.3-0.3,0.3c-0.7,0.1-1.2,0.4-1.5,0.7c-0.3,0.3-0.6,0.8-0.9,1.6c-0.2,0.5-0.5,0.7-0.8,0.7c-0.3,0-1-0.3-2.1-0.9
		c-3.4-1.7-6.5-3.9-9.5-6.6c-3.5-3.2-6.3-6.9-8.4-11.2c0.2,12.4,0.3,19.1,0.3,20c0,1-0.7,1.6-2.2,1.6c-1,0-1.5-0.5-1.5-1.4
		c0-4.2,0.2-10.4,0.5-18.5c-2.7,4-6.2,7.6-10.4,10.8c-3.5,2.6-7.3,4.7-11.4,6.3c0,0,0,0-0.1,0c-0.3,0-0.4-0.2-0.4-0.5
		c0-0.1,0-0.2,0.1-0.2c9-5.2,15.7-11.5,20.1-19h-15c-1.3,0-2.7,0.1-4,0.3l-0.5-2c1.7,0.2,3.1,0.4,4.4,0.4H500.4z M487.5,43
		c0-0.1-0.1-0.1-0.1-0.2c0-0.2,0.1-0.3,0.3-0.3c0.1,0,0.1,0,0.2,0.1c2.2,1.1,3.8,2.4,5,3.9c0.9,1.2,1.3,2.4,1.3,3.6
		c0,0.7-0.2,1.2-0.6,1.7c-0.4,0.4-0.8,0.6-1.3,0.6c-0.9,0-1.5-0.6-1.6-1.8C490.4,47.8,489.3,45.2,487.5,43z"/>
	<path class="st12" d="M548.9,44c-2.4,0.3-4.1,0.4-5.1,0.4c-1.5,0-2.6-0.2-3.5-0.7c-0.8-0.4-1.5-1.2-2.2-2.2
		c-0.2-0.3-0.3-0.5-0.3-0.7c0-0.5,0.2-0.7,0.5-0.7c0.3,0,0.5,0.2,0.9,0.5c0.7,0.7,1.4,1.1,2.1,1.3c0.5,0.2,1.3,0.2,2.3,0.2
		c1.9,0,4.1-0.3,6.6-0.9c0.6-1.2,1.1-2.6,1.6-4c0.2-0.8,0.4-1.5,0.4-1.9c0-1-1.1-1.4-3.3-1.4c-0.4,0-0.6-0.1-0.6-0.3
		c0-0.3,0.2-0.5,0.6-0.8c0.5-0.3,1.2-0.5,1.9-0.5c0.9,0,1.9,0.3,3.1,0.9c1.5,0.7,2.3,1.5,2.3,2.4c0,0.5-0.2,0.9-0.6,1.2
		c-0.5,0.3-1,0.9-1.4,1.7c-0.2,0.4-0.6,1.2-1.2,2.3c1.9-0.6,3.5-1.2,4.8-2c1.1-0.6,2-1,2.7-1c0.5,0,1,0.1,1.3,0.4
		c0.3,0.3,0.4,0.6,0.4,0.9c0,0.4-0.1,0.7-0.4,1c-0.2,0.2-0.6,0.4-1.3,0.7c-3,1.2-6.1,2.1-9.1,2.8c-2.1,3.6-3.8,6.5-5.2,8.5l0.1,0.1
		c2.3-1.8,4.4-2.7,6.4-2.7c3,0,4.5,1.6,4.7,4.7c0.1,0.8,0.1,1.6,0.1,2.2c5.1-3,8.7-5.3,10.9-6.8c0.4-0.3,0.6-0.6,0.6-0.9
		c0-0.2-0.2-0.5-0.5-0.7c-0.5-0.3-1.1-0.5-1.9-0.6c-0.3-0.1-0.5-0.2-0.5-0.3c0-0.3,0.2-0.5,0.7-0.6c0.4-0.1,0.9-0.2,1.4-0.2
		c1.2,0,2.5,0.4,3.9,1.3c1.4,0.9,2.2,1.7,2.2,2.5c0,0.7-0.4,1-1.1,1.1c-0.6,0.1-1.1,0.2-1.6,0.4c-2.8,1.2-6,2.7-9.6,4.6
		c-0.6,0.3-1.4,0.8-2.4,1.4c-1.1,0.6-1.8,1-2.2,1.3l0.1,7.6c0,1.3-0.5,2-1.4,2c-0.4,0-0.8-0.1-1.1-0.4c-0.3-0.3-0.4-0.6-0.4-1
		c0-0.6,0-1.6,0.1-3c0.1-1.5,0.1-2.7,0.1-3.6c-2.4,1.3-4.1,2.5-5.1,3.4c-1.5,1.4-2.2,2.9-2.2,4.5c0,2.6,2,3.9,6.1,3.9
		c3,0,5.6-0.1,8-0.4c0.9-0.1,1.9-0.3,2.9-0.5c0.9-0.2,1.6-0.3,2-0.3c1,0,1.8,0.2,2.4,0.7c0.5,0.4,0.8,0.9,0.8,1.4
		c0,0.9-1,1.5-3.1,1.7c-2.6,0.2-5.9,0.3-10,0.3c-7.3,0-11-2.1-11-6.4c0-2.3,1-4.5,3.1-6.4c1.2-1.2,3.3-2.6,6.1-4.3
		c0-1.1,0-1.8,0-2.2c0-1.8-0.2-3.1-0.7-3.8c-0.4-0.5-1-0.8-1.8-0.8c-2,0-4.3,1.2-6.7,3.5c-1.6,1.5-3.1,3.4-4.7,5.7
		c-0.4,0.5-0.8,0.8-1.3,0.8c-0.4,0-0.7-0.2-1-0.5c-0.3-0.3-0.4-0.7-0.4-1.1c0-0.7,0.5-1.5,1.5-2.6c2.1-2.1,3.8-4.2,5.3-6.4
		C546.3,48.7,547.6,46.6,548.9,44z"/>
	<path class="st12" d="M591.7,36.1h-3.4c-0.8,0-2,0.1-3.3,0.3l-0.5-1.9c1.3,0.2,2.6,0.3,3.9,0.3h9c1.4-1.7,2.2-2.5,2.5-2.5
		c0.2,0,1.2,0.6,2.7,1.9c0.8,0.6,1.2,1.1,1.2,1.4s-0.2,0.5-0.7,0.5h-8.2c-0.7,4.9-1.9,9.2-3.7,12.9l0.5,0.4h5.1c1-1,1.6-1.5,1.8-1.5
		c0.2,0,0.9,0.4,1.9,1.2c0.6,0.5,0.9,0.9,0.9,1.2c0,0.3-0.4,0.8-1.2,1.3v5.9l0.2,14.1c0,0.9-0.6,1.3-1.9,1.3c-0.8,0-1.2-0.4-1.2-1.2
		v-2h-5.9v4.3c0,0.9-0.6,1.3-1.9,1.3c-0.8,0-1.3-0.3-1.3-0.9l0.3-15l0.1-5.6c-1.3,2-2.8,3.8-4.4,5.5c0,0-0.1,0.1-0.2,0.1
		c-0.3,0-0.5-0.1-0.5-0.4c0,0,0-0.1,0.1-0.1C588,52.3,590.7,44.7,591.7,36.1z M597.3,68.5V50.8h-5.9v17.7H597.3z M609.6,48.5h6.9
		c0.9-1.8,1.6-3.4,2.1-4.7c0.4-0.9,0.6-2,0.9-3.3c2.1,0.7,3.3,1.2,3.7,1.4c0.4,0.2,0.6,0.4,0.6,0.7c0,0.4-0.6,0.7-1.9,0.9
		c-1.3,2-2.6,3.6-3.9,4.9h7.2c1.3-1.5,2.1-2.3,2.3-2.3c0.3,0,1.1,0.6,2.6,1.8c0.7,0.6,1.1,1,1.1,1.4c0,0.3-0.2,0.5-0.7,0.5h-10.9
		v6.8h4.8c1.2-1.5,1.9-2.2,2.2-2.2c0.3,0,1.1,0.6,2.5,1.7c0.6,0.6,1,1,1,1.3c0,0.3-0.2,0.5-0.7,0.5h-9.8v6.7h4.8
		c1.3-1.5,2-2.3,2.2-2.3c0.3,0,1.1,0.6,2.6,1.8c0.7,0.6,1,1,1,1.3c0,0.3-0.2,0.5-0.7,0.5h-9.9v7.7h6c1.4-1.8,2.3-2.7,2.6-2.7
		c0.3,0,1.2,0.7,2.7,2.1c0.7,0.6,1.1,1.1,1.1,1.4c0,0.3-0.2,0.5-0.7,0.5h-22.2v1.8c0,0.9-0.6,1.4-1.9,1.4c-0.9,0-1.4-0.4-1.4-1.1
		c0-0.2,0-1,0.1-2.4c0.1-4.3,0.2-9.8,0.3-16.6c0-1.2,0-3.1,0.1-5.5c-1.4,1.5-2.9,2.8-4.4,4c0,0-0.1,0.1-0.1,0.1
		c-0.3,0-0.5-0.2-0.5-0.5c0,0,0-0.1,0.1-0.1c4.5-4.6,8.1-10.6,10.7-17.8h-5.1c-0.1,1.8-0.5,3.3-1.3,4.4c-0.7,1.1-1.5,1.6-2.5,1.6
		c-1.1,0-1.7-0.6-1.7-1.7c0-0.7,0.4-1.3,1.3-1.9c1.9-1.2,3.1-3.2,3.3-6c0-0.1,0.1-0.2,0.3-0.2c0.2,0,0.3,0.1,0.4,0.3
		c0.1,0.5,0.2,1.2,0.3,2.2h5.5l0.2-0.5c0.7-2.3,1.2-4.3,1.3-6.1c2.1,0.5,3.4,0.9,4,1.1c0.5,0.2,0.7,0.5,0.7,0.7
		c0,0.5-0.6,0.8-1.8,1.1c0,0.1-0.4,1.3-1.2,3.7h10.8c1.1-1.2,1.8-1.9,2.1-1.9c0.4,0,1.3,0.7,2.7,2.1c0.7,0.7,1.1,1.2,1.1,1.6
		c0,0.4-0.6,0.6-1.9,0.6c-0.7,0-1.3,0.3-1.9,0.9c-0.9,0.9-1.9,1.7-3,2.5c-0.1,0.1-0.1,0.1-0.2,0.1c-0.3,0-0.4-0.1-0.4-0.3
		c0,0,0-0.1,0-0.1c0.7-1.5,1.3-2.9,1.7-4.2h-11.4C613.7,42,611.8,45.5,609.6,48.5z M609.1,56.5h7.5v-6.8h-7.5V56.5z M609.1,57.8v6.7
		h7.5v-6.7H609.1z M609.1,65.9v7.7h7.5v-7.7H609.1z"/>
	<path class="st12" d="M657.7,45.7c1.3-0.2,2.4-0.4,3.4-0.4c3.7,0,5.5,2.5,5.5,7.5c0,1.5-0.2,3.5-0.7,5.9c-0.4,2.1-0.9,3.9-1.4,5.3
		c-1.1,3.4-2.6,5.9-4.3,7.5c-1.4,1.4-2.9,2.1-4.4,2.1c-1,0-1.6-0.5-1.9-1.5c-0.1-0.5-0.4-1-0.8-1.5c-0.5-0.7-1.5-1.7-3-3.1
		c-0.1-0.1-0.2-0.3-0.2-0.5c0-0.3,0.2-0.5,0.5-0.5c0.1,0,0.3,0.1,0.5,0.3c1.8,1.3,3.3,2.2,4.4,2.8c0.3,0.2,0.8,0.3,1.4,0.3
		c0.7,0,1.4-0.3,2-0.9c1.4-1.5,2.7-4.2,3.8-7.9c1-3.4,1.5-6.5,1.5-9.3c0-3.2-1-4.7-3.1-4.7c-1.2,0-2.5,0.3-4.2,0.9
		c-4.2,9.1-8.5,17.3-12.7,24.4c-0.3,0.6-0.8,0.9-1.4,0.9c-1,0-1.5-0.4-1.5-1.3c0-0.5,0.2-0.9,0.5-1.4c5.3-8.3,9.5-15.6,12.4-21.7
		c-1.3,0.4-3.1,1.1-5.4,2c-0.8,0.3-1.5,0.6-2,1c-0.4,0.3-0.8,0.4-1.1,0.4c-0.8,0-1.5-0.3-2.2-1c-1.3-1.2-1.9-2.4-2-3.5
		c0-0.8,0.2-1.2,0.6-1.2c0.1,0,0.3,0.2,0.5,0.5c0.7,1.2,1.5,1.8,2.6,1.8c0.9,0,2.1-0.2,3.7-0.7c3.6-1,5.7-1.6,6.3-1.8
		c0.9-2.1,1.7-4.2,2.4-6.3c0.3-0.8,0.4-1.6,0.4-2.2c0-0.5-0.4-1-1.1-1.4c-0.7-0.4-1.4-0.6-2.2-0.6c-0.4-0.1-0.6-0.2-0.6-0.5
		c0-0.2,0.1-0.4,0.4-0.5c0.4-0.3,1.1-0.4,2-0.4c1.2,0,2.5,0.4,3.8,1.2c1.3,0.8,1.9,1.6,1.9,2.6c0,0.5-0.2,0.8-0.7,1.1
		c-0.4,0.2-0.9,0.8-1.3,1.8C658.7,43.5,658,45.1,657.7,45.7z M683.6,59.1c0,1.3-0.5,2-1.6,2c-0.5,0-1-0.1-1.4-0.4
		c-0.4-0.3-1-0.4-1.7-0.4c-2.1,0-4.1,0.1-6.1,0.2c-0.1,0-0.1,0-0.1,0c-0.4,0-0.6-0.2-0.6-0.6c0-0.3,0.2-0.5,0.6-0.6
		c2.9-0.6,5-1,6.2-1.4c0.5-0.1,0.7-0.4,0.7-0.8c0-1.4-0.8-3.1-2.5-5.1c-1.5-1.8-3.3-3.4-5.5-4.7c-0.2-0.2-0.3-0.4-0.3-0.6
		c0-0.4,0.2-0.6,0.5-0.6c0.3,0,0.5,0.1,0.7,0.2c3.2,1.3,6,3.4,8.2,6.3C682.6,54.9,683.6,57.1,683.6,59.1z"/>
	<path class="st12" d="M706.1,45.5c-2,0.4-4,0.5-5.9,0.5c-1.2,0-2.3-0.3-3.3-0.8c-0.9-0.5-1.6-1.1-2-1.9c-0.1-0.3-0.2-0.5-0.2-0.6
		c0-0.3,0.1-0.4,0.4-0.4c0.2,0,0.5,0.1,0.8,0.3c1.2,0.8,2.6,1.2,4.2,1.2c1.8,0.1,4.1-0.2,7.1-0.9c0.6-1.5,1.2-3.2,1.9-5.2
		c0.2-0.7,0.3-1.3,0.3-1.9c0-0.5-0.3-0.9-1-1.3c-0.7-0.4-1.4-0.7-2-0.8c-0.3-0.1-0.4-0.2-0.4-0.3c0-0.6,0.6-1,1.8-1
		c1,0,2.4,0.4,4.1,1.2c1.1,0.5,1.7,1.1,1.7,1.7c0,0.5-0.2,0.9-0.6,1.2c-0.4,0.2-0.8,1-1.4,2.2c0,0.1-0.3,0.6-0.7,1.7
		c-0.3,0.7-0.6,1.3-0.8,1.9c1.4-0.4,2.9-1,4.5-1.7c1.2-0.6,2.1-0.9,2.7-0.9c0.4,0,0.8,0.1,1.2,0.4c0.3,0.3,0.5,0.6,0.5,1
		c0,0.7-0.6,1.3-1.8,1.7c-2.6,0.9-5.4,1.6-8.3,2.2c-4,9.3-7.4,16.5-10,21.7c-0.3,0.7-0.9,1.1-1.8,1.1c-0.4,0-0.8-0.2-1.1-0.5
		c-0.2-0.3-0.4-0.6-0.4-1c0-0.5,0.1-0.9,0.4-1.3C699.8,59,703.1,52.5,706.1,45.5z M724.8,49.3c-1.2-0.4-2.8-0.6-4.6-0.6
		c-0.9,0-1.9,0.1-2.8,0.2c-0.1,0-0.1,0-0.1,0c-0.4,0-0.7-0.1-0.7-0.4c0-0.4,0.2-0.6,0.7-0.8c1.4-0.4,2.9-0.6,4.5-0.6
		c1.7,0,3.4,0.2,5.2,0.7c1.6,0.4,2.9,1,3.9,1.7c1.5,1,2.2,2,2.2,3c0,0.4-0.1,0.7-0.4,1c-0.3,0.2-0.6,0.4-0.9,0.4
		c-0.6,0-1.2-0.3-1.8-0.9c-1.4-1.4-2.8-2-4.3-2c-1.5,0-2.7,0.5-3.7,1.5c-0.9,0.9-1.3,2-1.3,3.3c0,1.4,0.2,3.2,0.6,5.3
		c0.1,0.6,0.3,1.6,0.6,2.8c0.2,1,0.4,1.7,0.4,2.2c4.8,1.5,8.1,3.1,9.8,4.6c0.6,0.5,0.9,1.1,0.9,1.9c0,1-0.5,1.5-1.6,1.5
		c-0.5-0.1-0.9-0.2-1.4-0.6c-2.8-2.2-5.3-3.7-7.5-4.6c-0.1,2.1-0.7,3.7-1.7,4.8c-1.3,1.3-3.4,2-6.3,2c-2.4,0-4.3-0.6-5.6-1.7
		c-1.1-0.9-1.7-2-1.7-3.3c0-1.8,0.9-3.2,2.6-4.3c1.4-0.9,3.1-1.3,5.1-1.3c2,0,3.5,0.1,4.6,0.4c-0.6-5.1-0.9-7.9-0.9-8.5
		c0-2.1,0.6-3.8,1.7-5c0.9-1,2.4-1.8,4.4-2.3c0.2-0.1,0.3-0.2,0.3-0.3C725,49.4,724.9,49.4,724.8,49.3z M719.8,67.9
		c-1.5-0.5-3.1-0.8-4.8-0.8c-1.9,0-3.4,0.3-4.6,1c-1,0.6-1.6,1.4-1.6,2.4c0,0.9,0.5,1.6,1.4,2.1c0.9,0.5,2.1,0.7,3.6,0.7
		c2,0,3.5-0.4,4.4-1.3C719.2,71.2,719.7,69.8,719.8,67.9z"/>
	<path class="st12" d="M762.3,62.3c-0.1,1.4-0.2,2.8-0.2,4.4c0,4.7,2.2,7,6.7,7c2.5,0,4.6-0.9,6.2-2.6c1.4-1.5,2.1-3.5,2.1-5.8
		c0-4.4-2.1-8.7-6.4-13c-0.3-0.3-0.4-0.5-0.4-0.8c0-0.4,0.2-0.6,0.7-0.6c0.1,0,0.4,0.1,0.8,0.4c2.6,1.8,4.8,4.1,6.4,6.9
		c1.5,2.5,2.2,5,2.2,7.5c0,3.2-1.3,5.8-3.9,7.8c-2.1,1.5-4.6,2.3-7.4,2.3c-2.8,0-5-0.8-6.6-2.5c-1.6-1.7-2.4-4-2.4-7.1
		c0-1.5,0.1-3,0.2-4.3c-2.6-0.9-4.5-1.8-5.5-2.9c-1.1-1.1-1.7-2.6-1.7-4.5c0-2.4,1.5-4.9,4.6-7.4c-1.8-0.7-3.1-1.7-4.1-2.9
		c-0.9-1.1-1.4-2.1-1.4-2.9c0-0.4,0.1-0.6,0.4-0.6c0.2,0,0.5,0.2,0.9,0.7c0.7,1,1.8,1.9,3.3,2.7c1.2,0.6,2.4,1,3.6,1.1
		c1.4,0.1,2.3,0.6,2.6,1.4c0.5-2.8,1-5.1,1.2-6.8c0-0.2,0.1-0.6,0.1-1c0.1-0.8,0.2-1.3,0.2-1.5c0-1.1-0.2-1.8-0.5-2.3
		c-0.3-0.5-1-0.8-1.8-1c-0.6-0.1-0.9-0.3-0.9-0.5c0-0.3,0.2-0.5,0.7-0.7c0.4-0.2,0.9-0.3,1.3-0.3c1.2,0,2.5,0.6,3.8,1.8
		c1.1,1,1.7,1.9,1.7,2.8c0,0.6-0.2,1-0.7,1.3c-0.4,0.3-0.7,0.9-1,2c-1.6,6.4-2.9,12.7-3.9,19c1,0.1,1.9,0.2,2.8,0.2
		c0.4,0,0.8,0,1.1-0.1c1.7-0.1,2.5,0.4,2.5,1.3c0,0.8-0.4,1.3-1.2,1.4c-0.5,0.1-1.3,0.2-2.4,0.2C764.7,62.6,763.5,62.5,762.3,62.3z
		 M760.8,59.2c0.7-4.4,1.3-8.2,1.9-11.4c-0.3,0.3-0.8,0.5-1.7,0.5c-1.1,0.1-2.1,0.4-3,1.1c-2.3,1.6-3.4,3.3-3.4,5
		C754.6,56.8,756.6,58.4,760.8,59.2z"/>
	<path class="st12" d="M819,40.7c0.7,1.1,1.1,2.4,1.1,3.9c0,1.3-0.3,3-1,5.2c-1.8,5.2-4.4,9.9-7.6,14c-1.9,2.4-3.7,3.5-5.2,3.5
		c-1.6,0-3-0.9-4.2-2.8c-1.2-2-1.9-4.3-1.9-7c0-5.1,1.9-9.5,5.8-13.1c4.1-3.8,9.2-5.7,15.3-5.7c5.7,0,10.2,1.8,13.6,5.3
		c3,3,4.4,6.8,4.4,11.2c0,5.5-2.7,9.9-8,13.1c-4,2.4-8.8,3.8-14.4,4.1c-0.1,0-0.1,0-0.1,0c-0.5,0-0.8-0.2-0.8-0.6
		c0-0.4,0.3-0.7,0.9-0.9c5.6-1,10.1-2.8,13.5-5.6c3.6-3,5.4-6.7,5.4-11.1c0-4.2-1.5-7.6-4.5-10.2c-2.5-2.1-5.7-3.3-9.5-3.5
		c-0.4,0-0.9-0.1-1.4-0.1C819.9,40.6,819.5,40.7,819,40.7z M817.4,40.9c-4.3,0.7-7.8,2.5-10.6,5.3c-2.9,2.9-4.3,6.4-4.3,10.4
		c0,1.9,0.4,3.7,1.3,5.3c0.7,1.2,1.5,1.8,2.5,1.8c0.9,0,2.2-1,3.7-3.1c3.2-4.2,5.6-8.9,7.3-13.9c0.5-1.4,0.7-2.7,0.7-3.8
		C818,42.1,817.8,41.3,817.4,40.9z"/>
	<path class="st12" d="M863.4,47.8c1.7-1.1,3.4-1.7,4.8-1.7c1.3,0,2.9,0.6,4.9,1.9c4.8,3.1,8.2,5.2,10.2,6.3c2.8,1.5,6.3,3.2,10.6,5
		c0.9,0.4,1.4,1,1.4,1.9c0,0.5-0.2,0.9-0.5,1.3c-0.4,0.3-0.8,0.5-1.3,0.5c-0.6,0-1.4-0.3-2.6-0.9c-3.7-1.8-6.8-3.5-9.3-5.2
		c-3.8-2.6-7.1-5-10-7.2c-1.2-1-2.3-1.6-3.4-1.6c-1.1,0-2.3,0.5-3.6,1.5c-1.8,1.4-3.6,3.1-5.4,5.1c-0.5,0.6-1.1,1.3-1.7,2.2
		c-0.4,0.7-0.9,1-1.6,1c-0.6,0-1.3-0.3-2.2-0.9c-0.8-0.5-1.4-1.1-2-1.8c-0.7-0.9-1.1-1.7-1.1-2.5c0-0.4,0.2-0.6,0.5-0.6
		c0.2,0,0.4,0.2,0.7,0.5c0.9,1,1.7,1.5,2.4,1.5c0.4,0,1.1-0.3,1.9-0.9c0.6-0.4,1.9-1.3,3.9-2.8C861.5,49.1,862.7,48.3,863.4,47.8z"
		/>
</g>
<line class="st13" x1="1540.4" y1="179" x2="2965" y2="179"/>
<line class="st13" x1="1540.4" y1="73" x2="2965" y2="73"/>
</svg>
